<svg xmlns="http://www.w3.org/2000/svg" viewBox="0 0 960 360"><defs><linearGradient id="a" x1="0" y1="0" x2="1" y2="1"><stop stop-color="#cfe9e4"/><stop offset="1" stop-color="#f5e6c8"/></linearGradient></defs><rect width="960" height="360" fill="url(#a)"/><circle cx="790" cy="70" r="42" fill="#f2c85b"/><path d="M0 265h960v95H0z" fill="#d8e0dc"/><path d="M80 160h135v105H80z" fill="#fff8e8"/><path d="M58 160l90-70 90 70z" fill="#b85d4a"/><path d="M120 204h42v61h-42z" fill="#315d84"/><path d="M290 135h165v130H290z" fill="#d5e7e0"/><path d="M265 135l108-75 108 75z" fill="#39515f"/><path d="M345 202h58v63h-58z" fill="#8f5a48"/><path d="M520 176h130v89H520z" fill="#fff8e8"/><path d="M500 176l85-62 85 62z" fill="#cc7f52"/><path d="M560 210h48v55h-48z" fill="#3d5460"/><path d="M720 145h135v120H720z" fill="#e1e7d5"/><path d="M700 145l88-65 88 65z" fill="#657d68"/><path d="M770 205h46v60h-46z" fill="#734f46"/><circle cx="65" cy="245" r="40" fill="#7da875"/><rect x="58" y="250" width="12" height="50" fill="#6b4c3e"/><circle cx="890" cy="245" r="44" fill="#65885f"/><rect x="884" y="252" width="12" height="50" fill="#6b4c3e"/><path d="M0 300c120-34 230 30 350-8 135-40 244 28 360-4 100-28 170-5 250 8v64H0z" fill="#c9d8cf"/><path d="M175 305h95m150 0h95m175 0h95" stroke="#fff8ec" stroke-width="7" stroke-linecap="round" stroke-dasharray="34 24"/><circle cx="205" cy="315" r="17" fill="none" stroke="#394d55" stroke-width="5"/><circle cx="270" cy="315" r="17" fill="none" stroke="#394d55" stroke-width="5"/><path d="M222 315h30l-13-30h25" fill="none" stroke="#394d55" stroke-width="5" stroke-linecap="round" stroke-linejoin="round"/><circle cx="675" cy="315" r="17" fill="none" stroke="#394d55" stroke-width="5"/><circle cx="740" cy="315" r="17" fill="none" stroke="#394d55" stroke-width="5"/><path d="M692 315h30l-13-30h25" fill="none" stroke="#394d55" stroke-width="5" stroke-linecap="round" stroke-linejoin="round"/></svg>